HIERARCHY
ROOT root
{
	OFFSET 0.000000 0.000000 0.000000
	CHANNELS 6 Xposition Yposition Zposition Zrotation Yrotation Xrotation
	JOINT lhip
	{
		OFFSET 0.058581 -0.082280 -0.017664
		CHANNELS 3 Zrotation Yrotation Xrotation
		JOINT lknee
		{
			OFFSET 0.043451 -0.386469 0.008037
			CHANNELS 3 Zrotation Yrotation Xrotation
			JOINT lankle
			{
				OFFSET -0.014790 -0.426874 -0.037428
				CHANNELS 3 Zrotation Yrotation Xrotation
				JOINT ltoe
				{
					OFFSET 0.041054 -0.060286 0.122042
					CHANNELS 3 Zrotation Yrotation Xrotation
					End Site
					{
						OFFSET 0.000000 0.000000 0.000000
					}
				}
			}
		}
	}
	JOINT rhip
	{
		OFFSET -0.060310 -0.090513 -0.013543
		CHANNELS 3 Zrotation Yrotation Xrotation
		JOINT rknee
		{
			OFFSET -0.043257 -0.383688 -0.004843
			CHANNELS 3 Zrotation Yrotation Xrotation
			JOINT rankle
			{
				OFFSET 0.019056 -0.420046 -0.034562
				CHANNELS 3 Zrotation Yrotation Xrotation
				JOINT rtoe
				{
					OFFSET -0.034840 -0.062106 0.130323
					CHANNELS 3 Zrotation Yrotation Xrotation
					End Site
					{
						OFFSET 0.000000 0.000000 0.000000
					}
				}
			}
		}
	}
	JOINT lowerback
	{
		OFFSET 0.004439 0.124404 -0.038385
		CHANNELS 3 Zrotation Yrotation Xrotation
		JOINT upperback
		{
			OFFSET 0.004488 0.137956 0.026820
			CHANNELS 3 Zrotation Yrotation Xrotation
			JOINT chest
			{
				OFFSET -0.002265 0.056032 0.002855
				CHANNELS 3 Zrotation Yrotation Xrotation
				JOINT lowerneck
				{
					OFFSET -0.013390 0.211636 -0.033468
					CHANNELS 3 Zrotation Yrotation Xrotation
					JOINT upperneck
					{
						OFFSET 0.010113 0.088937 0.050410
						CHANNELS 3 Zrotation Yrotation Xrotation
						End Site
						{
							OFFSET 0.000000 0.000000 0.000000
						}
					}
				}
				JOINT lclavicle
				{
					OFFSET 0.071702 0.114000 -0.018898
					CHANNELS 3 Zrotation Yrotation Xrotation
					JOINT lshoulder
					{
						OFFSET 0.122921 0.045205 -0.019046
						CHANNELS 3 Zrotation Yrotation Xrotation
						JOINT lelbow
						{
							OFFSET 0.255332 -0.015649 -0.022946
							CHANNELS 3 Zrotation Yrotation Xrotation
							JOINT lwrist
							{
								OFFSET 0.265709 0.012698 -0.007375
								CHANNELS 3 Zrotation Yrotation Xrotation
								End Site
								{
									OFFSET 0.000000 0.000000 0.000000
								}
							}
						}
					}
				}
				JOINT rclavicle
				{
					OFFSET -0.082954 0.112472 -0.023707
					CHANNELS 3 Zrotation Yrotation Xrotation
					JOINT rshoulder
					{
						OFFSET -0.113228 0.046853 -0.008472
						CHANNELS 3 Zrotation Yrotation Xrotation
						JOINT relbow
						{
							OFFSET -0.260127 -0.014369 -0.031269
							CHANNELS 3 Zrotation Yrotation Xrotation
							JOINT rwrist
							{
								OFFSET -0.269108 0.006794 -0.006027
								CHANNELS 3 Zrotation Yrotation Xrotation
								End Site
								{
									OFFSET 0.000000 0.000000 0.000000
								}
							}
						}
					}
				}
			}
		}
	}
}
MOTION
Frames: 6
Frame Time: 0.033333
-0.024403 0.782593 0.983320 64.754139 -3.014373 84.952394 1.895881 4.455336 -6.727531 -2.901856 4.858562 8.070473 3.827359 12.121899 -6.325049 0.000000 -0.000000 0.000000 -3.297037 -7.249481 1.478797 -0.259706 -6.676092 18.088423 0.022127 -9.355004 -16.829664 0.000000 -0.000000 0.000000 0.955203 4.306704 3.380880 0.381880 -0.741691 6.585639 -1.036534 1.481354 -2.310004 1.528451 9.380187 -1.013813 -2.101675 5.776506 -2.442040 -27.138845 6.420066 -6.414462 -63.252939 -2.004938 6.800939 17.160530 -29.901934 -13.347180 -7.552019 -4.525930 -5.104210 26.889831 2.382284 1.093613 51.298896 5.478362 13.242601 -8.695983 32.292853 2.439648 10.447889 6.938880 14.521866 
-0.024971 0.783298 0.983280 64.278319 -2.977468 84.612038 2.066410 4.692993 -6.224052 -3.048484 5.382785 7.678673 4.123500 12.177357 -6.041097 0.000000 -0.000000 0.000000 -4.369519 -6.429126 1.916872 1.930178 -6.325950 17.923528 0.176873 -9.657178 -17.041554 0.000000 -0.000000 0.000000 1.075290 3.931980 3.519380 0.325536 -0.506164 6.822090 -1.081087 1.610686 -2.332464 1.944576 9.243883 -1.669175 -2.523077 5.642127 -1.337802 -26.722172 5.545696 -6.230782 -62.729300 -3.115103 6.890792 17.343535 -32.699036 -13.228912 -7.378822 -3.939696 -5.744019 26.472390 2.791812 0.780630 50.323683 6.811814 13.157282 -9.130103 35.546949 2.106743 10.486545 6.722992 14.433693 
-0.026473 0.784490 0.983199 63.612912 -3.008087 84.815888 2.140600 4.531758 -6.473560 -3.020709 5.719251 7.867314 4.159767 12.102485 -6.143070 0.000000 -0.000000 0.000000 -4.358133 -6.782275 1.265665 1.613756 -6.091086 18.399128 0.389793 -8.981469 -17.011881 0.000000 -0.000000 0.000000 1.153026 4.148846 3.354596 0.382878 -0.706197 6.588543 -1.140036 1.582732 -2.314997 2.158557 9.339339 -1.846552 -2.483528 5.745865 -0.621276 -26.086559 4.883801 -6.428407 -62.362385 -3.755940 7.311642 17.801746 -37.058326 -13.827255 -5.864094 -3.680166 -6.777945 25.708048 3.227187 0.691228 49.456309 8.184005 13.069107 -9.286273 39.402450 1.787824 9.773505 7.022766 13.730733 
-0.026216 0.784810 0.983921 63.086376 -2.834430 84.209571 2.319980 4.996419 -5.562933 -2.877073 6.109971 7.431421 4.211491 11.957734 -6.261798 0.000000 -0.000000 0.000000 -4.239645 -5.896667 2.041681 1.582696 -6.706534 18.135159 0.570000 -8.735822 -17.018007 0.000000 -0.000000 0.000000 1.336381 3.468726 3.892669 0.400741 -0.540389 6.321249 -1.080622 1.689045 -2.324438 2.226216 9.678434 -1.188584 -2.451010 5.656855 -1.088671 -25.471775 3.838797 -6.354890 -61.305480 -4.254350 7.507494 18.471144 -42.876603 -13.834151 -4.560179 -3.967030 -7.766981 24.883803 4.098332 0.410466 48.244435 9.389229 12.735710 -9.677948 44.797016 1.421285 9.343576 8.001434 12.767304 
-0.026848 0.784931 0.984028 62.663237 -2.913393 84.214364 2.275085 5.036923 -5.583685 -2.792120 6.346227 7.740033 4.145009 11.744842 -6.195388 0.000000 -0.000000 0.000000 -4.306389 -5.886156 1.912270 1.511121 -6.581748 18.155310 0.361115 -8.305431 -17.176173 0.000000 -0.000000 0.000000 1.371821 3.642577 3.705084 0.401325 -0.418974 6.316190 -1.189110 1.551150 -2.274413 2.295975 9.901475 -0.915866 -2.195220 5.781128 -1.375755 -24.840461 3.083789 -6.093814 -60.874848 -5.054169 7.553702 19.178591 -46.338084 -14.516050 -4.098227 -4.158573 -8.294511 24.405305 4.185606 0.019021 47.489510 9.837903 12.572654 -10.068134 48.804811 1.431953 9.288994 7.947855 12.131793 
-0.027134 0.785134 0.984532 62.016074 -2.816081 84.117872 2.486828 5.231906 -5.383785 -2.813875 7.028312 7.641957 4.321949 11.652200 -6.184529 0.000000 -0.000000 0.000000 -4.180567 -5.896481 1.649345 1.263107 -6.639587 18.657623 0.689684 -7.920186 -17.211484 0.000000 -0.000000 0.000000 1.331070 3.368209 3.818983 0.564979 -0.652143 5.897010 -0.987562 1.633078 -2.410211 2.570460 10.502175 -0.646775 -2.522141 6.174425 -0.592364 -24.388445 2.889007 -6.347904 -59.962198 -5.001578 7.882323 20.067086 -51.758068 -14.965384 -2.835238 -4.084828 -9.120139 23.492631 4.513025 -0.070195 46.746489 10.807625 12.480266 -10.756463 53.687729 0.597075 9.077727 8.476863 11.209076 
